# xmcd
# 
# Track frame offsets:
#     150
#     25720
#     50450
#     74070
#     99192
#     123557
#     147385
#     169402
#     198082
# 
# Disc length: 2891
# 
# Revision: 14
# Processed by: cddbd v1.5.2PL0 Copyright (c) Steve Scherf et al.
# Submitted via: fre:ac v1.0.31
# 
DISCID=7f0b4909
DTITLE=The Rippingtons - Curves Ahead
DYEAR=1991
DGENRE=Jazz
TTITLE0=Curves Ahead
TTITLE1=Aspen
TTITLE2=Santa Fe Trail
TTITLE3=Take Me With You
TTITLE4=North Star
TTITLE5=Miles Away
TTITLE6=Snowbound
TTITLE7=Nature of the Beast
TTITLE8=Morning Song
EXTD=
EXTT0=
EXTT1=
EXTT2=
EXTT3=
EXTT4=
EXTT5=
EXTT6=
EXTT7=
EXTT8=
PLAYORDER=
